<svg width="20" height="28" viewBox="0 0 20 28" fill="none" xmlns="http://www.w3.org/2000/svg">
<path d="M5.44092 0L5.81713 10.6611L8.55622 0.35101L6.55066 10.8285L11.5153 1.38644L7.22855 11.155L14.1698 3.05436L7.8168 11.6241L16.3866 5.27114L8.28591 12.2124L18.0545 7.92564L8.61238 12.8903L19.0899 10.8847L8.77978 13.6238L19.4409 14L8.77978 14.3762L19.0899 17.1153L8.61238 15.1097L18.0545 20.0744L8.28591 15.7876L16.3866 22.7289L7.8168 16.3759L14.1698 24.9456L7.22855 16.845L11.5153 26.6136L6.55066 17.1715L8.55622 27.649L5.81713 17.3389L5.44092 28L5.06471 17.3389L2.32562 27.649L4.33117 17.1715L-0.633446 26.6136L3.65329 16.845L-3.28794 24.9456L3.06504 16.3759L-5.50472 22.7289L2.59593 15.7876L-7.17264 20.0744L2.26946 15.1097L-8.20807 17.1153L2.10206 14.3762L-8.55908 14L2.10206 13.6238L-8.20807 10.8847L2.26946 12.8903L-7.17264 7.92564L2.59593 12.2124L-5.50472 5.27114L3.06504 11.6241L-3.28794 3.05436L3.65329 11.155L-0.633446 1.38644L4.33117 10.8285L2.32562 0.35101L5.06471 10.6611L5.44092 0Z" fill="#CBCBCB"/>
</svg>
